<?xml version="1.0" encoding="UTF-8"?>
<!DOCTYPE svg PUBLIC "-//W3C//DTD SVG 1.1//EN" "http://www.w3.org/Graphics/SVG/1.1/DTD/svg11.dtd">
<!-- Creator: CorelDRAW X7 -->
<svg xmlns="http://www.w3.org/2000/svg" xml:space="preserve" width="100%" height="100%" version="1.1" style="shape-rendering:geometricPrecision; text-rendering:geometricPrecision; image-rendering:optimizeQuality; fill-rule:evenodd; clip-rule:evenodd"
viewBox="0 0 12700 12700"
 xmlns:xlink="http://www.w3.org/1999/xlink">
 <defs>
  <style type="text/css">
   <![CDATA[
    .str0 {stroke:#FEFEFE;stroke-width:211.66}
    .str1 {stroke:#FEFEFE;stroke-width:35.28}
    .fil0 {fill:none}
    .fil1 {fill:#FEFEFE}
   ]]>
  </style>
 </defs>
 <g id="Layer_x0020_1">
  <metadata id="CorelCorpID_0Corel-Layer"/>
  <rect class="fil0" width="12700" height="12700"/>
  <path class="fil0 str0" d="M2813 1728c2081,-1596 4993,-1596 7074,1m1084 1084c1597,2081 1597,4993 1,7074m-1085 1085c-2081,1596 -4993,1596 -7074,-1m-1084 -1084c-1597,-2081 -1597,-4993 -1,-7074"/>
  <g id="_2477834609984">
   <g>
    <polygon class="fil0 str1" points="8830,315 3769,6538 6001,7198 "/>
    <polygon id="1" class="fil1" points="8830,315 3769,6538 6001,7198 "/>
   </g>
   <g>
    <polygon class="fil0 str1" points="3824,12410 8885,6187 6653,5527 "/>
    <polygon id="1" class="fil1" points="3824,12410 8885,6187 6653,5527 "/>
   </g>
  </g>
 </g>
</svg>
